<?xml version="1.0" encoding="UTF-8"?>
<svg version="1.1" xmlns="http://www.w3.org/2000/svg" width="512" height="512">
<path d="M0 0 C5.83234906 4.67543014 11.30271327 9.72381064 16.71313477 14.8762207 C17.41954102 15.52977539 18.12594727 16.18333008 18.85375977 16.85668945 C53.74864154 50.12030643 76.68196047 103.82988118 77.91625977 151.87231445 C78.25494163 179.81680385 74.54565538 207.91229736 55.71313477 229.8762207 C55.02670898 230.77727539 55.02670898 230.77727539 54.32641602 231.6965332 C43.46214138 245.58039133 25.76652486 252.79068707 8.71313477 254.8762207 C-25.4202819 256.91403662 -54.32142734 240.59756837 -79.16577148 218.68481445 C-86.65151367 211.98680956 -93.07476486 204.77187487 -99.28686523 196.8762207 C-100.00745117 195.97258789 -100.72803711 195.06895508 -101.47045898 194.13793945 C-133.53071462 152.81964209 -149.6911515 100.68144166 -144.98657227 48.54858398 C-144.22252031 42.85566695 -142.97189591 37.3643516 -141.28686523 31.8762207 C-141.06724121 31.15998535 -140.84761719 30.44375 -140.62133789 29.70581055 C-134.17821186 9.51917294 -122.45623869 -8.21087598 -103.4921875 -18.37304688 C-68.46063688 -36.27733076 -29.25154753 -22.83951544 0 0 Z " fill="#7F5232" transform="translate(156.286865234375,37.123779296875)"/>
<path d="M0 0 C2.1812348 1.63869416 4.22332723 3.34255393 6.24609375 5.171875 C6.85582031 5.70167969 7.46554687 6.23148438 8.09375 6.77734375 C21.20176171 18.90585568 28.29024741 37.64492926 29.37207031 55.21826172 C30.00615144 72.97654649 27.29250563 89.48931195 21.24609375 106.171875 C21.00407227 106.84541016 20.76205078 107.51894531 20.51269531 108.21289062 C2.66287384 156.86916075 -39.12525748 197.45904939 -85.53808594 219.15869141 C-115.8615434 233.02408899 -151.09668811 240.71977834 -183.53076172 229.2722168 C-201.36972044 222.49997729 -214.7604205 209.89303792 -223.00390625 192.734375 C-234.88594959 165.83342887 -230.31488143 136.90771953 -220.671875 110.171875 C-212.33704619 88.96665682 -199.89463395 70.07902093 -184.75390625 53.171875 C-184.25181641 52.60807129 -183.74972656 52.04426758 -183.23242188 51.46337891 C-177.41573669 44.95883603 -171.54898113 38.6726499 -164.75390625 33.171875 C-163.65493507 32.26043215 -162.55597809 31.34897219 -161.45703125 30.4375 C-152.92124481 23.42200206 -144.13134769 17.01479861 -134.75390625 11.171875 C-133.85696045 10.60605713 -133.85696045 10.60605713 -132.94189453 10.02880859 C-114.58363237 -1.40236841 -93.96247742 -8.86073419 -72.75390625 -12.828125 C-71.81482422 -13.00553223 -70.87574219 -13.18293945 -69.90820312 -13.36572266 C-45.49548929 -16.94449046 -20.72848332 -13.76018467 0 0 Z " fill="#7F5232" transform="translate(472.75390625,85.828125)"/>
<path d="M0 0 C0.84662704 -0.00979385 1.69325409 -0.01958771 2.5655365 -0.02967834 C29.68516199 -0.27855329 54.96576446 1.57373838 80.8828125 10.23828125 C81.9661084 10.59792969 81.9661084 10.59792969 83.07128906 10.96484375 C114.6444021 21.65067652 145.38844974 41.39557477 160.84448242 71.78149414 C169.18940094 89.08922544 170.78688112 109.00461362 164.61914062 127.29150391 C160.819006 137.33867682 155.08810848 146.29911253 147.8828125 154.23828125 C147.14546875 155.05683594 146.408125 155.87539063 145.6484375 156.71875 C123.15376137 180.42637436 90.54144812 192.29834959 58.8828125 197.23828125 C58.1815625 197.35397461 57.4803125 197.46966797 56.7578125 197.58886719 C15.01714485 204.24919152 -33.14453833 197.81485397 -70.31884766 177.23388672 C-72.14044739 176.225404 -73.9768899 175.24878412 -75.81640625 174.2734375 C-83.65118828 170.04332682 -90.436518 165.10917263 -97.1171875 159.23828125 C-97.94734375 158.5525 -98.7775 157.86671875 -99.6328125 157.16015625 C-116.03673608 143.2322966 -128.17654797 123.72264868 -130.3359375 102.04199219 C-131.88321008 79.77093749 -124.06798263 60.53247565 -109.5390625 43.81640625 C-83.08655213 14.45702661 -38.66072955 0.37248265 0 0 Z " fill="#7F5232" transform="translate(147.1171875,303.76171875)"/>
<path d="M0 0 C1.24523437 0.32871094 2.49046875 0.65742188 3.7734375 0.99609375 C17.42230051 4.82443337 30.27651062 10.95931782 43.16015625 16.78125 C72.88300423 30.15814022 104.06303756 41.58072945 137 34 C144.11022273 32.435751 144.11022273 32.435751 147.5625 34.625 C149 37 149 37 148.859375 39.375 C146.31062895 47.16026067 136.2273816 52.59013952 129.40234375 56.3671875 C107.82410771 66.72275887 83.4190562 69.14866185 60 64 C58.70578125 63.74347656 57.4115625 63.48695313 56.078125 63.22265625 C39.68398673 59.81877245 25.27534336 53.4870785 10.87744141 45.08007812 C-10.04229458 33.04510907 -31.9091894 27.78678829 -55.9375 27.8125 C-56.62575867 27.8117749 -57.31401733 27.8110498 -58.02313232 27.81030273 C-67.40421887 27.81139569 -76.59226992 28.17181587 -85.8828125 29.5625 C-88.67235425 29.95401463 -91.19402576 30.23965616 -94 30 C-96 28 -96 28 -96.36328125 25.140625 C-95.78896205 20.17554292 -93.1304005 18.53841397 -89.421875 15.4375 C-64.17220029 -3.30893322 -30.10300783 -8.24328485 0 0 Z " fill="#5E3D25" transform="translate(140,372)"/>
<path d="M0 0 C3 0.4375 3 0.4375 4.6640625 1.625 C7.51204596 5.48893078 6.39246207 10.87848855 6 15.4375 C1.6310133 41.44821152 -14.34633894 63.82371601 -35.53125 79.02734375 C-51.7468626 90.26429015 -68.5877023 99.33551605 -87.875 103.875 C-107.43535412 108.49798481 -124.79656376 117.23047458 -140 130.4375 C-140.80695313 131.12328125 -141.61390625 131.8090625 -142.4453125 132.515625 C-150.37762059 139.42842014 -157.88504224 146.89983861 -163.9296875 155.5390625 C-164.41252197 156.22790527 -164.89535645 156.91674805 -165.39282227 157.62646484 C-166.32195712 158.97534815 -167.23225167 160.33745323 -168.12084961 161.71337891 C-169.39453125 163.578125 -169.39453125 163.578125 -172 166.4375 C-175.19921875 166.984375 -175.19921875 166.984375 -178 166.4375 C-180.74391496 163.69358504 -180.33160152 162.09076579 -180.375 158.25 C-179.9302633 133.98714212 -166.31302397 111.99134445 -149.44799805 95.41650391 C-132.15402155 79.01612303 -110.91158985 70.2802128 -88.9375 61.875 C-57.98078389 50.00135508 -25.93035545 37.02990661 -7.9453125 7.57421875 C-3.57093959 0.52076202 -3.57093959 0.52076202 0 0 Z " fill="#5E3D25" transform="translate(460,112.5625)"/>
<path d="M0 0 C4.30707065 0.34875066 7.72982612 1.53480659 11.609375 3.3125 C12.65762451 3.78453857 12.65762451 3.78453857 13.72705078 4.26611328 C20.03865725 7.21230329 25.49005697 10.871522 30.859375 15.3125 C31.68695313 15.96605469 32.51453125 16.61960937 33.3671875 17.29296875 C50.4981413 31.60456495 61.61447205 53.89337121 66.859375 75.3125 C67.14167969 76.36824219 67.42398438 77.42398438 67.71484375 78.51171875 C69.7977395 86.46192646 70.98456676 94.07457809 71.0703125 102.30859375 C71.09841817 103.85352555 71.1270828 105.39844726 71.15625 106.94335938 C71.19708464 109.33194269 71.23404356 111.72034561 71.26074219 114.10913086 C71.43049748 128.14760099 73.04706217 141.45904185 77.171875 154.9375 C77.38497314 155.64003906 77.59807129 156.34257812 77.81762695 157.06640625 C83.41449216 174.98933905 92.51145192 190.81441212 104.4140625 205.26171875 C106.76761963 208.19802565 108.95010458 211.0681073 110.859375 214.3125 C110.23913232 216.84985644 109.71388066 218.45799434 107.859375 220.3125 C91.41919449 220.60092422 75.88751416 207.20555671 64.609375 196.5 C42.04471882 173.05904649 34.70342163 142.34468723 31.76470947 110.95031738 C28.48251642 76.40761154 24.53436382 35.27509565 -3.140625 10.5625 C-5.140625 8.3125 -5.140625 8.3125 -5.578125 5.125 C-4.94644285 1.0641862 -4.07651853 0.40562373 0 0 Z " fill="#5E3D25" transform="translate(70.140625,40.6875)"/>
<path d="M0 0 C0.66 0.33 1.32 0.66 2 1 C1.57589844 1.55945313 1.15179688 2.11890625 0.71484375 2.6953125 C-7.83926353 14.38905916 -12.87080906 25.90415376 -16 40 C-16.2990625 41.16144531 -16.598125 42.32289062 -16.90625 43.51953125 C-21.18762084 62.13160169 -20.19812225 82.37270706 -16.39697266 100.99023438 C-16.03088131 102.84365623 -15.73664314 104.71088568 -15.44921875 106.578125 C-10.0314074 139.4535517 6.82624753 172.46513258 28 198 C28.49177734 198.59329102 28.98355469 199.18658203 29.49023438 199.79785156 C41.74890617 214.4944148 55.03779028 226.39883547 71 237 C71.7734375 237.53367187 72.546875 238.06734375 73.34375 238.6171875 C92.99943296 251.42106548 118.03421967 257.46186972 141.20703125 253.140625 C145.27485825 252.24911751 149.07342766 251.00654756 152.9375 249.4375 C154.01902344 249.00308594 155.10054687 248.56867188 156.21484375 248.12109375 C157.59349609 247.56615234 157.59349609 247.56615234 159 247 C159.99 246.67 160.98 246.34 162 246 C162 249 162 249 159.8671875 251.234375 C143.25552759 265.20031362 124.8140314 271.44873001 103 270 C68.06678446 266.20346527 36.61186296 244.30773786 14.5625 217.75 C13.03371388 215.83967067 11.51291014 213.92292695 10 212 C9.27941406 211.09636719 8.55882812 210.19273437 7.81640625 209.26171875 C-24.24384938 167.94342138 -40.40428626 115.80522096 -35.69970703 63.67236328 C-34.93565508 57.97944625 -33.68503068 52.4881309 -32 47 C-31.78037598 46.28376465 -31.56075195 45.5675293 -31.33447266 44.82958984 C-25.51392338 26.5935165 -15.55658708 11.33454883 0 0 Z " fill="#5E3D25" transform="translate(47,22)"/>
<path d="M0 0 C0.84662704 -0.00979385 1.69325409 -0.01958771 2.5655365 -0.02967834 C29.68516199 -0.27855329 54.96576446 1.57373838 80.8828125 10.23828125 C81.9661084 10.59792969 81.9661084 10.59792969 83.07128906 10.96484375 C114.63317554 21.64687692 145.41227687 41.39424321 160.84448242 71.78466797 C165.1525961 80.70491619 168.19943073 90.21824563 167.8828125 100.23828125 C164.60058166 98.59716583 163.75553282 95.00811917 162.2578125 91.80078125 C158.86680628 84.83204448 155.17683791 78.95475011 149.8828125 73.23828125 C149.43341309 72.74263672 148.98401367 72.24699219 148.52099609 71.73632812 C140.7526754 63.24303297 132.32627689 56.53997312 122.63378906 50.35742188 C121.17934961 49.42781362 119.74336161 48.46941165 118.3125 47.50390625 C78.57521731 21.75082409 20.91390609 15.99983366 -24.56445312 25.69140625 C-25.40685547 25.871875 -26.24925781 26.05234375 -27.1171875 26.23828125 C-28.62210767 26.53143111 -30.1272995 26.82319132 -31.6328125 27.11328125 C-61.64765003 33.20836768 -94.67789721 49.3561496 -112.02929688 75.50048828 C-119.63753132 87.65385739 -123.92327337 99.91131173 -125.1171875 114.23828125 C-126.1071875 114.23828125 -127.0971875 114.23828125 -128.1171875 114.23828125 C-133.31609438 95.76359429 -130.15485554 76.40528026 -121.22265625 59.68359375 C-104.14011787 30.76960177 -73.35432128 14.63899764 -41.89306641 5.94921875 C-28.15888685 2.43172263 -14.18625837 0.13667965 0 0 Z " fill="#5E3D25" transform="translate(147.1171875,303.76171875)"/>
<path d="M0 0 C1.01320313 0.928125 1.01320313 0.928125 2.046875 1.875 C2.046875 2.535 2.046875 3.195 2.046875 3.875 C0.87769531 3.59785156 -0.29148437 3.32070312 -1.49609375 3.03515625 C-3.04426023 2.66922599 -4.59243791 2.30334307 -6.140625 1.9375 C-7.29401367 1.66389648 -7.29401367 1.66389648 -8.47070312 1.38476562 C-9.59702148 1.11889648 -9.59702148 1.11889648 -10.74609375 0.84765625 C-11.4321167 0.68531494 -12.11813965 0.52297363 -12.82495117 0.35571289 C-13.52724854 0.19707764 -14.2295459 0.03844238 -14.953125 -0.125 C-15.74460937 -0.30587158 -16.53609375 -0.48674316 -17.3515625 -0.6730957 C-32.04099083 -3.22472219 -48.57076921 -1.80013737 -62.953125 1.875 C-64.1390625 2.14183594 -65.325 2.40867187 -66.546875 2.68359375 C-88.22646579 7.89503384 -108.86393735 17.92906265 -126.953125 30.875 C-127.91347656 31.56078125 -128.87382812 32.2465625 -129.86328125 32.953125 C-166.94496125 60.11704342 -196.31671463 96.89034038 -207.953125 141.875 C-208.18773437 142.78121094 -208.42234375 143.68742188 -208.6640625 144.62109375 C-214.29486687 168.16438447 -211.57514965 192.16254225 -198.953125 212.875 C-196.77681773 216.03582723 -194.45062524 218.96651871 -191.953125 221.875 C-190.9442413 223.20162408 -189.9416888 224.53316566 -188.953125 225.875 C-204.98866406 219.92307019 -215.93224998 207.55232394 -223.203125 192.4375 C-235.08516834 165.53655387 -230.51410018 136.61084453 -220.87109375 109.875 C-212.53626494 88.66978182 -200.0938527 69.78214593 -184.953125 52.875 C-184.45103516 52.31119629 -183.94894531 51.74739258 -183.43164062 51.16650391 C-177.61495544 44.66196103 -171.74819988 38.3757749 -164.953125 32.875 C-163.85415382 31.96355715 -162.75519684 31.05209719 -161.65625 30.140625 C-153.12046356 23.12512706 -144.33056644 16.71792361 -134.953125 10.875 C-134.0561792 10.30918213 -134.0561792 10.30918213 -133.14111328 9.73193359 C-114.78285112 -1.69924341 -94.16169617 -9.15760919 -72.953125 -13.125 C-72.01404297 -13.30240723 -71.07496094 -13.47981445 -70.10742188 -13.66259766 C-46.026399 -17.19274141 -20.10630841 -14.46803145 0 0 Z " fill="#5E3D25" transform="translate(472.953125,86.125)"/>
<path d="M0 0 C3 0.4375 3 0.4375 4.875 1.625 C6.43323149 4.13548407 6.49631357 5.53052053 6 8.4375 C4.6709333 9.77508636 3.33693529 11.10777838 2 12.4375 C0.89586503 14.11922382 -0.16472292 15.83009241 -1.1875 17.5625 C-18.70405339 45.61139466 -49.91086285 58.7899532 -79.5625 70 C-114.58605998 83.24916634 -147.43356303 98.90608576 -164.02490234 134.62670898 C-168.59723457 144.95176418 -171.17327798 155.32673197 -173 166.4375 C-175.375 166.5625 -175.375 166.5625 -178 166.4375 C-180.74391496 163.69358504 -180.33160152 162.09076579 -180.375 158.25 C-179.9302633 133.98714212 -166.31302397 111.99134445 -149.44799805 95.41650391 C-132.15402155 79.01612303 -110.91158985 70.2802128 -88.9375 61.875 C-57.98078389 50.00135508 -25.93035545 37.02990661 -7.9453125 7.57421875 C-3.57093959 0.52076202 -3.57093959 0.52076202 0 0 Z " fill="#4D321E" transform="translate(460,112.5625)"/>
<path d="M0 0 C1.24523437 0.32871094 2.49046875 0.65742188 3.7734375 0.99609375 C17.42230051 4.82443337 30.27651062 10.95931782 43.16015625 16.78125 C72.88300423 30.15814022 104.06303756 41.58072945 137 34 C144.11022273 32.435751 144.11022273 32.435751 147.5625 34.625 C149 37 149 37 148.875 39.625 C148 42 148 42 146 44 C143.78515625 44.5625 143.78515625 44.5625 141.0625 45 C136.76198331 45.69539011 136.76198331 45.69539011 132.49609375 46.5703125 C99.37097933 53.93144904 66.46701732 39.13143729 36.95947266 25.80273438 C3.63613173 10.75695253 -30.05146401 1.14048979 -65.93261719 14.18896484 C-74.6686312 17.61610685 -83.40115389 21.75103797 -90.421875 28.06640625 C-92 29 -92 29 -94.203125 28.65234375 C-94.79609375 28.43707031 -95.3890625 28.22179687 -96 28 C-96.29622257 24.6007246 -96.45295252 22.65672294 -94.48046875 19.796875 C-69.28753156 -2.69222055 -32.11698296 -8.79478358 0 0 Z " fill="#4D321E" transform="translate(140,372)"/>
<path d="M0 0 C1.175625 0.144375 2.35125 0.28875 3.5625 0.4375 C4.61600907 2.07086965 5.60768221 3.74454378 6.5625 5.4375 C8.07386211 7.09072282 9.61863061 8.71374738 11.1875 10.3125 C33.87228574 34.98137779 38.15768096 69.60497728 41.55859375 101.57421875 C41.64279068 102.35975632 41.72698761 103.14529388 41.81373596 103.95463562 C42.2244425 107.80605339 42.62135546 111.65798735 42.99243164 115.51342773 C44.34615256 129.02689245 46.94584153 142.31356278 51.75 155.0625 C52.19110107 156.24005859 52.19110107 156.24005859 52.64111328 157.44140625 C61.73050541 180.72383465 79.42116099 200.44464259 102.12109375 211.109375 C104.91654236 212.28155369 107.71483176 213.39961359 110.5625 214.4375 C108.6875 219.3125 108.6875 219.3125 107.5625 220.4375 C91.12231949 220.72592422 75.59063916 207.33055671 64.3125 196.625 C41.74784382 173.18404649 34.40654663 142.46968723 31.46783447 111.07531738 C28.18564142 76.53261154 24.23748882 35.40009565 -3.4375 10.6875 C-5.4375 8.4375 -5.4375 8.4375 -5.875 5.25 C-5.21496332 1.00690705 -4.22378663 0.53757284 0 0 Z " fill="#4D321E" transform="translate(70.4375,40.5625)"/>
</svg>
